<svg width="1920" height="1080" viewBox="0 0 1920 1080" xmlns="http://www.w3.org/2000/svg">
  <defs>
    <linearGradient id="skyGradient" x1="0%" y1="0%" x2="0%" y2="100%">
      <stop offset="0%" style="stop-color:#87CEEB;stop-opacity:1" />
      <stop offset="70%" style="stop-color:#B0E0E6;stop-opacity:1" />
      <stop offset="100%" style="stop-color:#E0F6FF;stop-opacity:1" />
    </linearGradient>
    <linearGradient id="oceanGradient" x1="0%" y1="0%" x2="0%" y2="100%">
      <stop offset="0%" style="stop-color:#4169E1;stop-opacity:1" />
      <stop offset="50%" style="stop-color:#1E90FF;stop-opacity:1" />
      <stop offset="100%" style="stop-color:#00BFFF;stop-opacity:1" />
    </linearGradient>
    <linearGradient id="sandGradient" x1="0%" y1="0%" x2="0%" y2="100%">
      <stop offset="0%" style="stop-color:#F4A460;stop-opacity:1" />
      <stop offset="100%" style="stop-color:#DEB887;stop-opacity:1" />
    </linearGradient>
  </defs>
  
  <!-- Sky -->
  <rect width="1920" height="1080" fill="url(#skyGradient)"/>
  
  <!-- Ocean -->
  <rect x="0" y="600" width="1920" height="480" fill="url(#oceanGradient)"/>
  
  <!-- Ocean waves -->
  <g id="waves">
    <path d="M0,600 Q200,580 400,600 T800,600 T1200,600 T1600,600 T1920,600" stroke="#87CEEB" stroke-width="4" fill="none" opacity="0.7"/>
    <path d="M0,620 Q200,600 400,620 T800,620 T1200,620 T1600,620 T1920,620" stroke="#87CEEB" stroke-width="3" fill="none" opacity="0.5"/>
    <path d="M0,640 Q200,620 400,640 T800,640 T1200,640 T1600,640 T1920,640" stroke="#87CEEB" stroke-width="2" fill="none" opacity="0.3"/>
  </g>
  
  <!-- Beach -->
  <rect x="0" y="580" width="1920" height="100" fill="url(#sandGradient)"/>
  
  <!-- Beach details -->
  <g id="beachDetails">
    <!-- Rocks -->
    <circle cx="200" cy="650" r="15" fill="#8B7355"/>
    <circle cx="300" cy="640" r="12" fill="#8B7355"/>
    <circle cx="500" cy="655" r="18" fill="#8B7355"/>
    <circle cx="800" cy="645" r="10" fill="#8B7355"/>
    <circle cx="1200" cy="650" r="14" fill="#8B7355"/>
    <circle cx="1500" cy="640" r="16" fill="#8B7355"/>
    <circle cx="1700" cy="645" r="11" fill="#8B7355"/>
    
    <!-- Shells -->
    <ellipse cx="150" cy="620" rx="8" ry="4" fill="#FFE4B5"/>
    <ellipse cx="400" cy="625" rx="6" ry="3" fill="#FFE4B5"/>
    <ellipse cx="700" cy="620" rx="7" ry="3.5" fill="#FFE4B5"/>
    <ellipse cx="1000" cy="625" rx="5" ry="2.5" fill="#FFE4B5"/>
    <ellipse cx="1300" cy="620" rx="9" ry="4" fill="#FFE4B5"/>
    <ellipse cx="1600" cy="625" rx="6" ry="3" fill="#FFE4B5"/>
  </g>
  
  <!-- Palm trees -->
  <g id="palmTrees">
    <!-- Palm tree 1 -->
    <rect x="100" y="500" width="8" height="80" fill="#8B4513"/>
    <path d="M104,500 Q80,480 60,500 Q80,520 104,500" fill="#228B22"/>
    <path d="M104,500 Q120,480 140,500 Q120,520 104,500" fill="#228B22"/>
    <path d="M104,500 Q100,460 96,500 Q100,540 104,500" fill="#228B22"/>
    <path d="M104,500 Q108,460 112,500 Q108,540 104,500" fill="#228B22"/>
    
    <!-- Palm tree 2 -->
    <rect x="300" y="480" width="10" height="100" fill="#8B4513"/>
    <path d="M305,480 Q280,460 255,480 Q280,500 305,480" fill="#228B22"/>
    <path d="M305,480 Q325,460 345,480 Q325,500 305,480" fill="#228B22"/>
    <path d="M305,480 Q300,440 295,480 Q300,520 305,480" fill="#228B22"/>
    <path d="M305,480 Q310,440 315,480 Q310,520 305,480" fill="#228B22"/>
    
    <!-- Palm tree 3 -->
    <rect x="600" y="490" width="9" height="90" fill="#8B4513"/>
    <path d="M604,490 Q580,470 560,490 Q580,510 604,490" fill="#228B22"/>
    <path d="M604,490 Q620,470 640,490 Q620,510 604,490" fill="#228B22"/>
    <path d="M604,490 Q600,450 596,490 Q600,530 604,490" fill="#228B22"/>
    <path d="M604,490 Q608,450 612,490 Q608,530 604,490" fill="#228B22"/>
    
    <!-- Palm tree 4 -->
    <rect x="900" y="470" width="11" height="110" fill="#8B4513"/>
    <path d="M905,470 Q880,450 855,470 Q880,490 905,470" fill="#228B22"/>
    <path d="M905,470 Q925,450 945,470 Q925,490 905,470" fill="#228B22"/>
    <path d="M905,470 Q900,430 895,470 Q900,510 905,470" fill="#228B22"/>
    <path d="M905,470 Q910,430 915,470 Q910,510 905,470" fill="#228B22"/>
    
    <!-- Palm tree 5 -->
    <rect x="1200" y="485" width="8" height="95" fill="#8B4513"/>
    <path d="M1204,485 Q1180,465 1160,485 Q1180,505 1204,485" fill="#228B22"/>
    <path d="M1204,485 Q1220,465 1240,485 Q1220,505 1204,485" fill="#228B22"/>
    <path d="M1204,485 Q1200,445 1196,485 Q1200,525 1204,485" fill="#228B22"/>
    <path d="M1204,485 Q1208,445 1212,485 Q1208,525 1204,485" fill="#228B22"/>
    
    <!-- Palm tree 6 -->
    <rect x="1500" y="475" width="10" height="105" fill="#8B4513"/>
    <path d="M1505,475 Q1480,455 1455,475 Q1480,495 1505,475" fill="#228B22"/>
    <path d="M1505,475 Q1525,455 1545,475 Q1525,495 1505,475" fill="#228B22"/>
    <path d="M1505,475 Q1500,435 1495,475 Q1500,515 1505,475" fill="#228B22"/>
    <path d="M1505,475 Q1510,435 1515,475 Q1510,515 1505,475" fill="#228B22"/>
    
    <!-- Palm tree 7 -->
    <rect x="1800" y="495" width="9" height="85" fill="#8B4513"/>
    <path d="M1804,495 Q1780,475 1760,495 Q1780,515 1804,495" fill="#228B22"/>
    <path d="M1804,495 Q1820,475 1840,495 Q1820,515 1804,495" fill="#228B22"/>
    <path d="M1804,495 Q1800,455 1796,495 Q1800,535 1804,495" fill="#228B22"/>
    <path d="M1804,495 Q1808,455 1812,495 Q1808,535 1804,495" fill="#228B22"/>
  </g>
  
  <!-- Clouds -->
  <g id="clouds">
    <circle cx="200" cy="150" r="30" fill="white" opacity="0.8"/>
    <circle cx="220" cy="150" r="40" fill="white" opacity="0.8"/>
    <circle cx="240" cy="150" r="30" fill="white" opacity="0.8"/>
    
    <circle cx="600" cy="120" r="25" fill="white" opacity="0.7"/>
    <circle cx="620" cy="120" r="35" fill="white" opacity="0.7"/>
    <circle cx="640" cy="120" r="25" fill="white" opacity="0.7"/>
    
    <circle cx="1000" cy="180" r="35" fill="white" opacity="0.6"/>
    <circle cx="1020" cy="180" r="45" fill="white" opacity="0.6"/>
    <circle cx="1040" cy="180" r="35" fill="white" opacity="0.6"/>
    
    <circle cx="1400" cy="140" r="28" fill="white" opacity="0.7"/>
    <circle cx="1420" cy="140" r="38" fill="white" opacity="0.7"/>
    <circle cx="1440" cy="140" r="28" fill="white" opacity="0.7"/>
    
    <circle cx="1700" cy="160" r="32" fill="white" opacity="0.6"/>
    <circle cx="1720" cy="160" r="42" fill="white" opacity="0.6"/>
    <circle cx="1740" cy="160" r="32" fill="white" opacity="0.6"/>
  </g>
  
  <!-- Sun -->
  <circle cx="1600" cy="200" r="60" fill="#FFD700" opacity="0.9"/>
  <circle cx="1600" cy="200" r="50" fill="#FFFF00" opacity="0.8"/>
</svg>