<svg width="1920" height="1080" viewBox="0 0 1920 1080" xmlns="http://www.w3.org/2000/svg">
  <defs>
    <linearGradient id="skyGradient" x1="0%" y1="0%" x2="0%" y2="100%">
      <stop offset="0%" style="stop-color:#87CEEB;stop-opacity:1" />
      <stop offset="100%" style="stop-color:#98FB98;stop-opacity:1" />
    </linearGradient>
    <linearGradient id="mountainGradient" x1="0%" y1="0%" x2="0%" y2="100%">
      <stop offset="0%" style="stop-color:#8FBC8F;stop-opacity:1" />
      <stop offset="100%" style="stop-color:#556B2F;stop-opacity:1" />
    </linearGradient>
    <linearGradient id="treeGradient" x1="0%" y1="0%" x2="0%" y2="100%">
      <stop offset="0%" style="stop-color:#228B22;stop-opacity:1" />
      <stop offset="100%" style="stop-color:#006400;stop-opacity:1" />
    </linearGradient>
  </defs>
  
  <!-- Sky -->
  <rect width="1920" height="1080" fill="url(#skyGradient)"/>
  
  <!-- Mountains -->
  <polygon points="0,400 300,200 600,350 900,150 1200,300 1500,100 1800,250 1920,200 1920,1080 0,1080" fill="url(#mountainGradient)"/>
  
  <!-- Trees -->
  <g id="trees">
    <!-- Tree 1 -->
    <rect x="100" y="600" width="20" height="80" fill="#8B4513"/>
    <circle cx="110" cy="580" r="40" fill="url(#treeGradient)"/>
    <circle cx="90" cy="560" r="25" fill="url(#treeGradient)"/>
    <circle cx="130" cy="560" r="25" fill="url(#treeGradient)"/>
    
    <!-- Tree 2 -->
    <rect x="300" y="550" width="25" height="100" fill="#8B4513"/>
    <circle cx="312" cy="520" r="50" fill="url(#treeGradient)"/>
    <circle cx="280" cy="500" r="30" fill="url(#treeGradient)"/>
    <circle cx="340" cy="500" r="30" fill="url(#treeGradient)"/>
    
    <!-- Tree 3 -->
    <rect x="500" y="620" width="18" height="70" fill="#8B4513"/>
    <circle cx="509" cy="600" r="35" fill="url(#treeGradient)"/>
    <circle cx="485" cy="580" r="20" fill="url(#treeGradient)"/>
    <circle cx="535" cy="580" r="20" fill="url(#treeGradient)"/>
    
    <!-- Tree 4 -->
    <rect x="800" y="580" width="22" height="90" fill="#8B4513"/>
    <circle cx="811" cy="550" r="45" fill="url(#treeGradient)"/>
    <circle cx="780" cy="530" r="28" fill="url(#treeGradient)"/>
    <circle cx="840" cy="530" r="28" fill="url(#treeGradient)"/>
    
    <!-- Tree 5 -->
    <rect x="1200" y="590" width="20" height="85" fill="#8B4513"/>
    <circle cx="1210" cy="560" r="42" fill="url(#treeGradient)"/>
    <circle cx="1180" cy="540" r="26" fill="url(#treeGradient)"/>
    <circle cx="1240" cy="540" r="26" fill="url(#treeGradient)"/>
    
    <!-- Tree 6 -->
    <rect x="1500" y="610" width="24" height="75" fill="#8B4513"/>
    <circle cx="1512" cy="580" r="38" fill="url(#treeGradient)"/>
    <circle cx="1485" cy="560" r="24" fill="url(#treeGradient)"/>
    <circle cx="1540" cy="560" r="24" fill="url(#treeGradient)"/>
  </g>
  
  <!-- Ground -->
  <rect x="0" y="680" width="1920" height="400" fill="#90EE90"/>
  
  <!-- Grass details -->
  <g id="grass">
    <path d="M0,680 Q50,670 100,680 T200,680 T300,680 T400,680 T500,680 T600,680 T700,680 T800,680 T900,680 T1000,680 T1100,680 T1200,680 T1300,680 T1400,680 T1500,680 T1600,680 T1700,680 T1800,680 T1920,680" stroke="#7CCD7C" stroke-width="3" fill="none"/>
  </g>
  
  <!-- Clouds -->
  <g id="clouds">
    <circle cx="200" cy="150" r="30" fill="white" opacity="0.8"/>
    <circle cx="220" cy="150" r="40" fill="white" opacity="0.8"/>
    <circle cx="240" cy="150" r="30" fill="white" opacity="0.8"/>
    
    <circle cx="600" cy="120" r="25" fill="white" opacity="0.7"/>
    <circle cx="620" cy="120" r="35" fill="white" opacity="0.7"/>
    <circle cx="640" cy="120" r="25" fill="white" opacity="0.7"/>
    
    <circle cx="1000" cy="180" r="35" fill="white" opacity="0.6"/>
    <circle cx="1020" cy="180" r="45" fill="white" opacity="0.6"/>
    <circle cx="1040" cy="180" r="35" fill="white" opacity="0.6"/>
    
    <circle cx="1400" cy="140" r="28" fill="white" opacity="0.7"/>
    <circle cx="1420" cy="140" r="38" fill="white" opacity="0.7"/>
    <circle cx="1440" cy="140" r="28" fill="white" opacity="0.7"/>
  </g>
</svg>