<svg width="1920" height="1080" viewBox="0 0 1920 1080" xmlns="http://www.w3.org/2000/svg">
  <defs>
    <linearGradient id="skyGradient" x1="0%" y1="0%" x2="0%" y2="100%">
      <stop offset="0%" style="stop-color:#87CEEB;stop-opacity:1" />
      <stop offset="50%" style="stop-color:#B0C4DE;stop-opacity:1" />
      <stop offset="100%" style="stop-color:#708090;stop-opacity:1" />
    </linearGradient>
    <linearGradient id="buildingGradient" x1="0%" y1="0%" x2="0%" y2="100%">
      <stop offset="0%" style="stop-color:#696969;stop-opacity:1" />
      <stop offset="100%" style="stop-color:#2F4F4F;stop-opacity:1" />
    </linearGradient>
    <linearGradient id="windowGradient" x1="0%" y1="0%" x2="0%" y2="100%">
      <stop offset="0%" style="stop-color:#FFD700;stop-opacity:0.8" />
      <stop offset="100%" style="stop-color:#FFA500;stop-opacity:0.6" />
    </linearGradient>
  </defs>
  
  <!-- Sky -->
  <rect width="1920" height="1080" fill="url(#skyGradient)"/>
  
  <!-- Buildings -->
  <g id="buildings">
    <!-- Building 1 -->
    <rect x="0" y="400" width="200" height="680" fill="url(#buildingGradient)"/>
    <rect x="20" y="420" width="30" height="20" fill="url(#windowGradient)"/>
    <rect x="60" y="420" width="30" height="20" fill="url(#windowGradient)"/>
    <rect x="100" y="420" width="30" height="20" fill="url(#windowGradient)"/>
    <rect x="140" y="420" width="30" height="20" fill="url(#windowGradient)"/>
    <rect x="20" y="460" width="30" height="20" fill="url(#windowGradient)"/>
    <rect x="60" y="460" width="30" height="20" fill="url(#windowGradient)"/>
    <rect x="100" y="460" width="30" height="20" fill="url(#windowGradient)"/>
    <rect x="140" y="460" width="30" height="20" fill="url(#windowGradient)"/>
    
    <!-- Building 2 -->
    <rect x="200" y="300" width="180" height="780" fill="url(#buildingGradient)"/>
    <rect x="220" y="320" width="25" height="25" fill="url(#windowGradient)"/>
    <rect x="255" y="320" width="25" height="25" fill="url(#windowGradient)"/>
    <rect x="290" y="320" width="25" height="25" fill="url(#windowGradient)"/>
    <rect x="325" y="320" width="25" height="25" fill="url(#windowGradient)"/>
    <rect x="220" y="360" width="25" height="25" fill="url(#windowGradient)"/>
    <rect x="255" y="360" width="25" height="25" fill="url(#windowGradient)"/>
    <rect x="290" y="360" width="25" height="25" fill="url(#windowGradient)"/>
    <rect x="325" y="360" width="25" height="25" fill="url(#windowGradient)"/>
    
    <!-- Building 3 -->
    <rect x="400" y="500" width="150" height="580" fill="url(#buildingGradient)"/>
    <rect x="420" y="520" width="20" height="30" fill="url(#windowGradient)"/>
    <rect x="450" y="520" width="20" height="30" fill="url(#windowGradient)"/>
    <rect x="480" y="520" width="20" height="30" fill="url(#windowGradient)"/>
    <rect x="510" y="520" width="20" height="30" fill="url(#windowGradient)"/>
    
    <!-- Building 4 -->
    <rect x="600" y="200" width="220" height="880" fill="url(#buildingGradient)"/>
    <rect x="620" y="220" width="35" height="35" fill="url(#windowGradient)"/>
    <rect x="665" y="220" width="35" height="35" fill="url(#windowGradient)"/>
    <rect x="710" y="220" width="35" height="35" fill="url(#windowGradient)"/>
    <rect x="755" y="220" width="35" height="35" fill="url(#windowGradient)"/>
    <rect x="620" y="270" width="35" height="35" fill="url(#windowGradient)"/>
    <rect x="665" y="270" width="35" height="35" fill="url(#windowGradient)"/>
    <rect x="710" y="270" width="35" height="35" fill="url(#windowGradient)"/>
    <rect x="755" y="270" width="35" height="35" fill="url(#windowGradient)"/>
    
    <!-- Building 5 -->
    <rect x="850" y="350" width="170" height="730" fill="url(#buildingGradient)"/>
    <rect x="870" y="370" width="28" height="28" fill="url(#windowGradient)"/>
    <rect x="908" y="370" width="28" height="28" fill="url(#windowGradient)"/>
    <rect x="946" y="370" width="28" height="28" fill="url(#windowGradient)"/>
    <rect x="984" y="370" width="28" height="28" fill="url(#windowGradient)"/>
    
    <!-- Building 6 -->
    <rect x="1050" y="450" width="190" height="630" fill="url(#buildingGradient)"/>
    <rect x="1070" y="470" width="32" height="32" fill="url(#windowGradient)"/>
    <rect x="1112" y="470" width="32" height="32" fill="url(#windowGradient)"/>
    <rect x="1154" y="470" width="32" height="32" fill="url(#windowGradient)"/>
    <rect x="1196" y="470" width="32" height="32" fill="url(#windowGradient)"/>
    
    <!-- Building 7 -->
    <rect x="1300" y="250" width="200" height="830" fill="url(#buildingGradient)"/>
    <rect x="1320" y="270" width="30" height="30" fill="url(#windowGradient)"/>
    <rect x="1360" y="270" width="30" height="30" fill="url(#windowGradient)"/>
    <rect x="1400" y="270" width="30" height="30" fill="url(#windowGradient)"/>
    <rect x="1440" y="270" width="30" height="30" fill="url(#windowGradient)"/>
    <rect x="1320" y="320" width="30" height="30" fill="url(#windowGradient)"/>
    <rect x="1360" y="320" width="30" height="30" fill="url(#windowGradient)"/>
    <rect x="1400" y="320" width="30" height="30" fill="url(#windowGradient)"/>
    <rect x="1440" y="320" width="30" height="30" fill="url(#windowGradient)"/>
    
    <!-- Building 8 -->
    <rect x="1550" y="400" width="180" height="680" fill="url(#buildingGradient)"/>
    <rect x="1570" y="420" width="25" height="25" fill="url(#windowGradient)"/>
    <rect x="1605" y="420" width="25" height="25" fill="url(#windowGradient)"/>
    <rect x="1640" y="420" width="25" height="25" fill="url(#windowGradient)"/>
    <rect x="1675" y="420" width="25" height="25" fill="url(#windowGradient)"/>
    
    <!-- Building 9 -->
    <rect x="1780" y="300" width="140" height="780" fill="url(#buildingGradient)"/>
    <rect x="1800" y="320" width="22" height="22" fill="url(#windowGradient)"/>
    <rect x="1832" y="320" width="22" height="22" fill="url(#windowGradient)"/>
    <rect x="1864" y="320" width="22" height="22" fill="url(#windowGradient)"/>
    <rect x="1800" y="360" width="22" height="22" fill="url(#windowGradient)"/>
    <rect x="1832" y="360" width="22" height="22" fill="url(#windowGradient)"/>
    <rect x="1864" y="360" width="22" height="22" fill="url(#windowGradient)"/>
  </g>
  
  <!-- Ground -->
  <rect x="0" y="1080" width="1920" height="200" fill="#708090"/>
  
  <!-- Street -->
  <rect x="0" y="1000" width="1920" height="80" fill="#2F4F4F"/>
  <line x1="0" y1="1040" x2="1920" y2="1040" stroke="white" stroke-width="2" stroke-dasharray="20,20"/>
</svg>