<svg width="40" height="32" viewBox="0 0 40 32" xmlns="http://www.w3.org/2000/svg">
  <defs>
    <linearGradient id="wingGradient1" x1="0%" y1="0%" x2="100%" y2="100%">
      <stop offset="0%" style="stop-color:#FF6B6B;stop-opacity:1" />
      <stop offset="100%" style="stop-color:#E53E3E;stop-opacity:1" />
    </linearGradient>
    <linearGradient id="wingGradient2" x1="0%" y1="0%" x2="100%" y2="100%">
      <stop offset="0%" style="stop-color:#4ECDC4;stop-opacity:1" />
      <stop offset="100%" style="stop-color:#26A69A;stop-opacity:1" />
    </linearGradient>
  </defs>
  
  <!-- Body -->
  <ellipse cx="20" cy="16" rx="1" ry="8" fill="#2D3748"/>
  
  <!-- Upper wings -->
  <ellipse cx="12" cy="10" rx="8" ry="6" fill="url(#wingGradient1)" transform="rotate(-20 12 10)"/>
  <ellipse cx="28" cy="10" rx="8" ry="6" fill="url(#wingGradient1)" transform="rotate(20 28 10)"/>
  
  <!-- Lower wings -->
  <ellipse cx="10" cy="20" rx="6" ry="4" fill="url(#wingGradient2)" transform="rotate(-30 10 20)"/>
  <ellipse cx="30" cy="20" rx="6" ry="4" fill="url(#wingGradient2)" transform="rotate(30 30 20)"/>
  
  <!-- Wing patterns -->
  <circle cx="12" cy="8" r="2" fill="white" opacity="0.6"/>
  <circle cx="28" cy="8" r="2" fill="white" opacity="0.6"/>
  <circle cx="10" cy="18" r="1.5" fill="white" opacity="0.6"/>
  <circle cx="30" cy="18" r="1.5" fill="white" opacity="0.6"/>
  
  <!-- Antennae -->
  <line x1="20" y1="8" x2="18" y2="4" stroke="#2D3748" stroke-width="1"/>
  <line x1="20" y1="8" x2="22" y2="4" stroke="#2D3748" stroke-width="1"/>
  <circle cx="18" cy="4" r="1" fill="#2D3748"/>
  <circle cx="22" cy="4" r="1" fill="#2D3748"/>
</svg>